<?xml version="1.0" encoding="UTF-8"?>
<svg width="27px" height="29px" viewBox="0 0 27 29" version="1.1" xmlns="http://www.w3.org/2000/svg" xmlns:xlink="http://www.w3.org/1999/xlink">
    <!-- Generator: Sketch 52.4 (67378) - http://www.bohemiancoding.com/sketch -->
    <title>noun_Settings_1515651 Copy</title>
    <desc>Created with Sketch.</desc>
    <g id="Page-1" stroke="none" stroke-width="1" fill="none" fill-rule="evenodd">
        <g id="Desktop-HD-Copy" transform="translate(-823.000000, -170.000000)" fill="#000000" fill-rule="nonzero">
            <g id="noun_Settings_1515651-Copy" transform="translate(823.000000, 170.000000)">
                <path d="M13.5,19.3333333 C16.211216,19.3333333 18.4090909,17.1693763 18.4090909,14.5 C18.4090909,11.8306237 16.211216,9.66666667 13.5,9.66666667 C10.788784,9.66666667 8.59090909,11.8306237 8.59090909,14.5 C8.59090909,17.1693763 10.788784,19.3333333 13.5,19.3333333 Z M13.5,12.0833333 C14.855608,12.0833333 15.9545455,13.1653119 15.9545455,14.5 C15.9545455,15.8346881 14.855608,16.9166667 13.5,16.9166667 C12.144392,16.9166667 11.0454545,15.8346881 11.0454545,14.5 C11.0454545,13.1653119 12.144392,12.0833333 13.5,12.0833333 Z" id="Shape"></path>
                <path d="M0.398863636,21.1035417 C0.623833752,21.5329932 0.87167879,21.9504494 1.14136364,22.3541667 C2.05121032,23.6956777 3.77257477,24.2539648 5.31409091,23.7075 L6.85431818,23.16375 C7.57805967,23.7052743 8.36755921,24.1558334 9.20454545,24.505 L9.49909091,26.0939583 C9.79257011,27.7269413 11.203229,28.9371874 12.8863636,29 L13.5,29 L14.1136364,29 C15.7882641,28.9328156 17.1910452,27.7299741 17.4886364,26.1060417 L17.7954545,24.505 C18.6275442,24.1587267 19.4128459,23.7122695 20.1334091,23.1758333 L21.6736364,23.7195833 C23.2215167,24.27001 24.9509251,23.7057655 25.8586364,22.3541667 C26.1289687,21.9478092 26.3748459,21.5261816 26.595,21.0914583 C27.3384165,19.649024 26.9661786,17.8918634 25.6990909,16.8622917 L24.4718182,15.823125 C24.5863351,14.9406005 24.5863351,14.0473162 24.4718182,13.1647917 L25.6990909,12.125625 C26.9479488,11.0856168 27.3195861,9.34322558 26.6011364,7.89645833 C26.3761662,7.46700679 26.1283212,7.04955063 25.8586364,6.64583333 C24.9487897,5.30432229 23.2274252,4.74603517 21.6859091,5.2925 L20.1456818,5.83625 C19.4234309,5.29252589 18.6336387,4.84179981 17.7954545,4.495 L17.5009091,2.90604167 C17.2074299,1.27305868 15.796771,0.0628125671 14.1136364,0 C13.6902273,0 13.2606818,0 12.8372727,0 C11.162645,0.0671843639 9.75986385,1.27002592 9.46227273,2.89395833 L9.20454545,4.495 C8.37127584,4.83893453 7.58568672,5.28555522 6.86659091,5.82416667 L5.32636364,5.28041667 C3.77848325,4.72999002 2.04907489,5.29423447 1.14136364,6.64583333 C0.872377085,7.05092162 0.626540977,7.47046168 0.405,7.9025 C-0.31487124,9.34793112 0.0541867709,11.0900809 1.30090909,12.1316667 L2.52818182,13.1708333 C2.41366487,14.0533578 2.41366487,14.9466422 2.52818182,15.8291667 L1.30090909,16.8683333 C0.0348519404,17.9007916 -0.339260185,19.6572916 0.398863636,21.1035417 Z M2.89022727,18.686875 L4.6575,17.2127083 C4.99457524,16.9309326 5.15163493,16.4924128 5.06863636,16.0647917 C4.85588113,15.0158416 4.85588113,13.9358251 5.06863636,12.886875 C5.15163493,12.4592539 4.99457524,12.0207341 4.6575,11.7389583 L2.89022727,10.2708333 C2.49985648,9.95927248 2.37576302,9.42567689 2.58954545,8.97791667 C2.77480034,8.61692168 2.97964165,8.26599817 3.20318182,7.92666667 C3.49260836,7.52312057 4.02299174,7.36397438 4.49181818,7.54 L6.67636364,8.30729167 C7.09627173,8.45843515 7.5664398,8.37279635 7.90363636,8.08375 C8.72277082,7.38812725 9.66797119,6.85107691 10.6895455,6.50083333 C11.1070336,6.35773705 11.4140993,6.00463759 11.4934091,5.57645833 L11.9106818,3.32291667 C12.0119459,2.81467006 12.45291,2.44039496 12.9784091,2.41666667 C13.3258928,2.39854527 13.6741072,2.39854527 14.0215909,2.41666667 C14.5517518,2.4349339 14.9992409,2.8104311 15.1015909,3.32291667 L15.5188636,5.5825 C15.5981735,6.01067926 15.9052391,6.36377872 16.3227273,6.506875 C17.3443015,6.85711858 18.2895019,7.39416892 19.1086364,8.08979167 C19.4458329,8.37883802 19.916001,8.46447681 20.3359091,8.31333333 L22.5204545,7.54604167 C22.989281,7.37001605 23.5196644,7.52916224 23.8090909,7.93270833 C24.0326311,8.27203983 24.2374724,8.62296335 24.4227273,8.98395833 C24.6305205,9.4328171 24.5015104,9.96330897 24.1097727,10.2708333 L22.3486364,11.745 C22.0093,12.0254373 21.8498179,12.4641724 21.9313636,12.8929167 C22.1441189,13.9418667 22.1441189,15.0218833 21.9313636,16.0708333 C21.8498179,16.4995776 22.0093,16.9383127 22.3486364,17.21875 L24.1097727,18.7291667 C24.5001435,19.0407275 24.624237,19.5743231 24.4104545,20.0220833 C24.2251997,20.3830783 24.0203583,20.7340018 23.7968182,21.0733333 C23.5087527,21.478729 22.9769263,21.6383082 22.5081818,21.46 L20.3236364,20.6927083 C19.9037283,20.5415649 19.4335602,20.6272036 19.0963636,20.91625 C18.2772292,21.6118728 17.3320288,22.1489231 16.3104545,22.4991667 C15.8929664,22.642263 15.5859007,22.9953624 15.5065909,23.4235417 L15.0893182,25.6770833 C14.9880541,26.1853299 14.54709,26.559605 14.0215909,26.5833333 C13.6741072,26.6014547 13.3258928,26.6014547 12.9784091,26.5833333 C12.4463635,26.5644506 11.9982447,26.1859182 11.8984091,25.6710417 L11.4811364,23.4175 C11.4018265,22.9893207 11.0947609,22.6362213 10.6772727,22.493125 C9.65569846,22.1428814 8.7104981,21.6058311 7.89136364,20.9102083 C7.6683295,20.7194902 7.38290948,20.6143776 7.0875,20.6141667 C6.94725379,20.6150266 6.80819491,20.6395484 6.67636364,20.6866667 L4.49181818,21.4539583 C4.02307371,21.6322665 3.49124733,21.4726873 3.20318182,21.0672917 C2.97964165,20.7279602 2.77480034,20.3770367 2.58954545,20.0160417 C2.37900088,19.5698656 2.50282642,19.03991 2.89022727,18.7291667 L2.89022727,18.686875 Z" id="Shape"></path>
            </g>
        </g>
    </g>
</svg>