<svg width="181" height="68" viewBox="0 0 181 68" fill="none" xmlns="http://www.w3.org/2000/svg">
<path d="M22.0216 31.224C20.6349 31.224 19.2802 31.0427 17.9576 30.68C16.6349 30.3173 15.5789 29.8587 14.7896 29.304L16.3256 26.264C17.0936 26.776 18.0109 27.192 19.0776 27.512C20.1656 27.8107 21.2322 27.96 22.2776 27.96C24.6669 27.96 25.8616 27.3307 25.8616 26.072C25.8616 25.4747 25.5522 25.0587 24.9336 24.824C24.3362 24.5893 23.3656 24.3653 22.0216 24.152C20.6136 23.9387 19.4616 23.6933 18.5656 23.416C17.6909 23.1387 16.9229 22.6587 16.2616 21.976C15.6216 21.272 15.3016 20.3013 15.3016 19.064C15.3016 17.4427 15.9736 16.152 17.3176 15.192C18.6829 14.2107 20.5176 13.72 22.8216 13.72C23.9949 13.72 25.1682 13.8587 26.3416 14.136C27.5149 14.392 28.4749 14.744 29.2216 15.192L27.6856 18.232C26.2349 17.3787 24.6029 16.952 22.7896 16.952C21.6162 16.952 20.7202 17.1333 20.1016 17.496C19.5042 17.8373 19.2056 18.296 19.2056 18.872C19.2056 19.512 19.5256 19.9707 20.1656 20.248C20.8269 20.504 21.8402 20.7493 23.2056 20.984C24.5709 21.1973 25.6909 21.4427 26.5656 21.72C27.4402 21.9973 28.1869 22.4667 28.8056 23.128C29.4456 23.7893 29.7656 24.728 29.7656 25.944C29.7656 27.544 29.0722 28.824 27.6856 29.784C26.2989 30.744 24.4109 31.224 22.0216 31.224ZM43.4823 30.072C43.013 30.456 42.437 30.744 41.7543 30.936C41.093 31.128 40.389 31.224 39.6423 31.224C37.765 31.224 36.3143 30.7333 35.2903 29.752C34.2663 28.7707 33.7543 27.3413 33.7543 25.464V17.24H30.9383V14.04H33.7543V10.136H37.7543V14.04H42.3303V17.24H37.7543V25.368C37.7543 26.2 37.957 26.84 38.3623 27.288C38.7676 27.7147 39.3543 27.928 40.1223 27.928C41.0183 27.928 41.765 27.6933 42.3623 27.224L43.4823 30.072ZM56.2448 13.72C57.9088 13.72 59.3915 14.0827 60.6928 14.808C62.0155 15.5333 63.0501 16.5573 63.7968 17.88C64.5435 19.2027 64.9168 20.728 64.9168 22.456C64.9168 24.184 64.5435 25.72 63.7968 27.064C63.0501 28.3867 62.0155 29.4107 60.6928 30.136C59.3915 30.8613 57.9088 31.224 56.2448 31.224C55.0715 31.224 53.9941 31.0213 53.0128 30.616C52.0528 30.2107 51.2421 29.6027 50.5808 28.792V31H46.7728V7.256H50.7728V15.992C51.4555 15.2453 52.2555 14.68 53.1728 14.296C54.1115 13.912 55.1355 13.72 56.2448 13.72ZM55.7968 27.8C57.2688 27.8 58.4741 27.3093 59.4128 26.328C60.3728 25.3467 60.8528 24.056 60.8528 22.456C60.8528 20.856 60.3728 19.5653 59.4128 18.584C58.4741 17.6027 57.2688 17.112 55.7968 17.112C54.8368 17.112 53.9728 17.336 53.2048 17.784C52.4368 18.2107 51.8288 18.8293 51.3808 19.64C50.9328 20.4507 50.7088 21.3893 50.7088 22.456C50.7088 23.5227 50.9328 24.4613 51.3808 25.272C51.8288 26.0827 52.4368 26.712 53.2048 27.16C53.9728 27.5867 54.8368 27.8 55.7968 27.8Z" fill="black"/>
<path d="M66.0696 47.32C64.3416 47.32 62.6669 47.0747 61.0456 46.584C59.4456 46.0933 58.1763 45.4427 57.2376 44.632L58.6776 41.4C59.5949 42.1253 60.7149 42.7227 62.0376 43.192C63.3816 43.64 64.7256 43.864 66.0696 43.864C67.7336 43.864 68.9709 43.5973 69.7816 43.064C70.6136 42.5307 71.0296 41.8267 71.0296 40.952C71.0296 40.312 70.7949 39.7893 70.3256 39.384C69.8776 38.9573 69.3016 38.6267 68.5976 38.392C67.8936 38.1573 66.9336 37.8907 65.7176 37.592C64.0109 37.1867 62.6243 36.7813 61.5576 36.376C60.5123 35.9707 59.6056 35.3413 58.8376 34.488C58.0909 33.6133 57.7176 32.44 57.7176 30.968C57.7176 29.7307 58.0483 28.6107 58.7096 27.608C59.3923 26.584 60.4056 25.7733 61.7496 25.176C63.1149 24.5787 64.7789 24.28 66.7416 24.28C68.1069 24.28 69.4509 24.4507 70.7736 24.792C72.0963 25.1333 73.2376 25.624 74.1976 26.264L72.8856 29.496C71.9043 28.92 70.8803 28.4827 69.8136 28.184C68.7469 27.8853 67.7123 27.736 66.7096 27.736C65.0669 27.736 63.8403 28.0133 63.0296 28.568C62.2403 29.1227 61.8456 29.8587 61.8456 30.776C61.8456 31.416 62.0696 31.9387 62.5176 32.344C62.9869 32.7493 63.5736 33.0693 64.2776 33.304C64.9816 33.5387 65.9416 33.8053 67.1576 34.104C68.8216 34.488 70.1869 34.8933 71.2536 35.32C72.3203 35.7253 73.2269 36.3547 73.9736 37.208C74.7416 38.0613 75.1256 39.2133 75.1256 40.664C75.1256 41.9013 74.7843 43.0213 74.1016 44.024C73.4403 45.0267 72.4269 45.8267 71.0616 46.424C69.6963 47.0213 68.0323 47.32 66.0696 47.32ZM95.4106 29.912V47H91.6026V44.824C90.9626 45.592 90.1626 46.1893 89.2026 46.616C88.2426 47.0213 87.2079 47.224 86.0986 47.224C83.8159 47.224 82.0133 46.5947 80.6906 45.336C79.3893 44.056 78.7386 42.168 78.7386 39.672V29.912H82.7386V39.128C82.7386 40.664 83.0799 41.816 83.7626 42.584C84.4666 43.3307 85.4586 43.704 86.7386 43.704C88.1679 43.704 89.2986 43.2667 90.1306 42.392C90.9839 41.496 91.4106 40.216 91.4106 38.552V29.912H95.4106ZM105.928 47.224C104.541 47.224 103.187 47.0427 101.864 46.68C100.541 46.3173 99.4852 45.8587 98.6959 45.304L100.232 42.264C101 42.776 101.917 43.192 102.984 43.512C104.072 43.8107 105.139 43.96 106.184 43.96C108.573 43.96 109.768 43.3307 109.768 42.072C109.768 41.4747 109.459 41.0587 108.84 40.824C108.243 40.5893 107.272 40.3653 105.928 40.152C104.52 39.9387 103.368 39.6933 102.472 39.416C101.597 39.1387 100.829 38.6587 100.168 37.976C99.5279 37.272 99.2079 36.3013 99.2079 35.064C99.2079 33.4427 99.8799 32.152 101.224 31.192C102.589 30.2107 104.424 29.72 106.728 29.72C107.901 29.72 109.075 29.8587 110.248 30.136C111.421 30.392 112.381 30.744 113.128 31.192L111.592 34.232C110.141 33.3787 108.509 32.952 106.696 32.952C105.523 32.952 104.627 33.1333 104.008 33.496C103.411 33.8373 103.112 34.296 103.112 34.872C103.112 35.512 103.432 35.9707 104.072 36.248C104.733 36.504 105.747 36.7493 107.112 36.984C108.477 37.1973 109.597 37.4427 110.472 37.72C111.347 37.9973 112.093 38.4667 112.712 39.128C113.352 39.7893 113.672 40.728 113.672 41.944C113.672 43.544 112.979 44.824 111.592 45.784C110.205 46.744 108.317 47.224 105.928 47.224ZM126.813 29.72C128.967 29.72 130.695 30.3493 131.997 31.608C133.298 32.8667 133.949 34.7333 133.949 37.208V47H129.949V37.72C129.949 36.2267 129.597 35.1067 128.893 34.36C128.189 33.592 127.186 33.208 125.885 33.208C124.413 33.208 123.25 33.656 122.397 34.552C121.543 35.4267 121.117 36.696 121.117 38.36V47H117.117V23.256H121.117V31.896C121.778 31.192 122.589 30.6587 123.549 30.296C124.53 29.912 125.618 29.72 126.813 29.72ZM139.023 29.912H143.023V47H139.023V29.912ZM141.039 27.096C140.314 27.096 139.706 26.872 139.215 26.424C138.724 25.9547 138.479 25.3787 138.479 24.696C138.479 24.0133 138.724 23.448 139.215 23C139.706 22.5307 140.314 22.296 141.039 22.296C141.764 22.296 142.372 22.52 142.863 22.968C143.354 23.3947 143.599 23.9387 143.599 24.6C143.599 25.304 143.354 25.9013 142.863 26.392C142.394 26.8613 141.786 27.096 141.039 27.096Z" fill="black"/>
<path d="M93.37 60.835H86.95L85.48 64H85.135L90.01 53.5H90.31L95.185 64H94.84L93.37 60.835ZM93.235 60.55L90.16 53.905L87.085 60.55H93.235ZM103.594 52.87V64H103.294V61.63C103.034 62.37 102.594 62.96 101.974 63.4C101.354 63.83 100.639 64.045 99.8289 64.045C99.1289 64.045 98.4889 63.88 97.9089 63.55C97.3389 63.21 96.8889 62.74 96.5589 62.14C96.2289 61.54 96.0639 60.865 96.0639 60.115C96.0639 59.365 96.2289 58.695 96.5589 58.105C96.8889 57.505 97.3389 57.04 97.9089 56.71C98.4889 56.37 99.1289 56.2 99.8289 56.2C100.629 56.2 101.339 56.42 101.959 56.86C102.589 57.29 103.034 57.87 103.294 58.6V52.87H103.594ZM99.8289 63.76C100.479 63.76 101.069 63.605 101.599 63.295C102.129 62.985 102.544 62.555 102.844 62.005C103.144 61.445 103.294 60.815 103.294 60.115C103.294 59.415 103.144 58.79 102.844 58.24C102.544 57.68 102.129 57.25 101.599 56.95C101.069 56.64 100.479 56.485 99.8289 56.485C99.1789 56.485 98.5889 56.64 98.0589 56.95C97.5289 57.25 97.1139 57.68 96.8139 58.24C96.5139 58.79 96.3639 59.415 96.3639 60.115C96.3639 60.815 96.5139 61.445 96.8139 62.005C97.1139 62.555 97.5289 62.985 98.0589 63.295C98.5889 63.605 99.1789 63.76 99.8289 63.76ZM116.687 56.2C117.627 56.2 118.362 56.48 118.892 57.04C119.432 57.59 119.702 58.385 119.702 59.425V64H119.402V59.425C119.402 58.475 119.167 57.75 118.697 57.25C118.227 56.74 117.562 56.485 116.702 56.485C115.722 56.485 114.947 56.79 114.377 57.4C113.807 58 113.522 58.795 113.522 59.785V64H113.222V59.425C113.222 58.475 112.987 57.75 112.517 57.25C112.047 56.74 111.382 56.485 110.522 56.485C109.542 56.485 108.767 56.79 108.197 57.4C107.627 58 107.342 58.795 107.342 59.785V64H107.042V56.245H107.342V58.3C107.572 57.64 107.962 57.125 108.512 56.755C109.062 56.385 109.727 56.2 110.507 56.2C111.297 56.2 111.947 56.4 112.457 56.8C112.967 57.19 113.297 57.76 113.447 58.51C113.647 57.8 114.027 57.24 114.587 56.83C115.157 56.41 115.857 56.2 116.687 56.2ZM123.068 56.245H123.368V64H123.068V56.245ZM123.218 54.1C123.108 54.1 123.013 54.06 122.933 53.98C122.863 53.9 122.828 53.81 122.828 53.71C122.828 53.6 122.863 53.51 122.933 53.44C123.013 53.36 123.108 53.32 123.218 53.32C123.318 53.32 123.408 53.36 123.488 53.44C123.568 53.51 123.608 53.6 123.608 53.71C123.608 53.81 123.568 53.9 123.488 53.98C123.408 54.06 123.318 54.1 123.218 54.1ZM130.373 56.2C131.343 56.2 132.103 56.48 132.653 57.04C133.203 57.59 133.478 58.385 133.478 59.425V64H133.178V59.425C133.178 58.475 132.933 57.75 132.443 57.25C131.963 56.74 131.278 56.485 130.388 56.485C129.378 56.485 128.578 56.79 127.988 57.4C127.408 58 127.118 58.795 127.118 59.785V64H126.818V56.245H127.118V58.315C127.358 57.655 127.758 57.14 128.318 56.77C128.878 56.39 129.563 56.2 130.373 56.2ZM144.412 53.5C145.702 53.5 146.712 53.805 147.442 54.415C148.172 55.015 148.537 55.86 148.537 56.95C148.537 58.04 148.172 58.89 147.442 59.5C146.712 60.1 145.702 60.4 144.412 60.4H141.157V64H140.857V53.5H144.412ZM144.442 60.115C145.662 60.115 146.597 59.84 147.247 59.29C147.907 58.74 148.237 57.96 148.237 56.95C148.237 55.94 147.907 55.16 147.247 54.61C146.597 54.06 145.662 53.785 144.442 53.785H141.157V60.115H144.442ZM153.492 56.2C154.392 56.2 155.077 56.435 155.547 56.905C156.027 57.365 156.267 58.035 156.267 58.915V64H155.967V62.35C155.717 62.88 155.337 63.295 154.827 63.595C154.327 63.895 153.722 64.045 153.012 64.045C152.152 64.045 151.477 63.85 150.987 63.46C150.507 63.06 150.267 62.53 150.267 61.87C150.267 61.25 150.482 60.75 150.912 60.37C151.352 59.98 152.057 59.785 153.027 59.785H155.967V58.93C155.967 58.12 155.757 57.51 155.337 57.1C154.927 56.69 154.317 56.485 153.507 56.485C152.947 56.485 152.422 56.585 151.932 56.785C151.452 56.975 151.037 57.235 150.687 57.565L150.477 57.355C150.847 56.995 151.297 56.715 151.827 56.515C152.357 56.305 152.912 56.2 153.492 56.2ZM153.012 63.76C154.452 63.76 155.437 63.1 155.967 61.78V60.07H153.012C152.172 60.07 151.552 60.23 151.152 60.55C150.762 60.87 150.567 61.305 150.567 61.855C150.567 62.445 150.782 62.91 151.212 63.25C151.642 63.59 152.242 63.76 153.012 63.76ZM163.185 56.2C164.155 56.2 164.915 56.48 165.465 57.04C166.015 57.59 166.29 58.385 166.29 59.425V64H165.99V59.425C165.99 58.475 165.745 57.75 165.255 57.25C164.775 56.74 164.09 56.485 163.2 56.485C162.19 56.485 161.39 56.79 160.8 57.4C160.22 58 159.93 58.795 159.93 59.785V64H159.63V56.245H159.93V58.315C160.17 57.655 160.57 57.14 161.13 56.77C161.69 56.39 162.375 56.2 163.185 56.2ZM175.92 60.115H169.02C169.02 60.815 169.175 61.445 169.485 62.005C169.795 62.555 170.22 62.985 170.76 63.295C171.31 63.605 171.925 63.76 172.605 63.76C173.135 63.76 173.63 63.66 174.09 63.46C174.56 63.25 174.945 62.95 175.245 62.56L175.455 62.77C175.115 63.18 174.695 63.495 174.195 63.715C173.695 63.935 173.165 64.045 172.605 64.045C171.865 64.045 171.2 63.88 170.61 63.55C170.03 63.21 169.57 62.74 169.23 62.14C168.9 61.54 168.735 60.865 168.735 60.115C168.735 59.365 168.89 58.695 169.2 58.105C169.51 57.505 169.935 57.04 170.475 56.71C171.025 56.37 171.64 56.2 172.32 56.2C172.99 56.2 173.6 56.365 174.15 56.695C174.7 57.025 175.13 57.48 175.44 58.06C175.76 58.64 175.92 59.3 175.92 60.04V60.115ZM172.32 56.485C171.72 56.485 171.175 56.63 170.685 56.92C170.195 57.21 169.8 57.61 169.5 58.12C169.21 58.63 169.05 59.2 169.02 59.83H175.635C175.605 59.2 175.44 58.63 175.14 58.12C174.84 57.61 174.445 57.21 173.955 56.92C173.465 56.63 172.92 56.485 172.32 56.485ZM178.454 52.87H178.754V64H178.454V52.87Z" fill="black"/>
<path d="M58.6168 43.5C49.117 36 12.1171 37.5 4.11698 31C-3.88313 24.5 13.1172 25.5 16.6172 28.5" stroke="black" stroke-width="3.5"/>
</svg>
