<?xml version="1.0" encoding="UTF-8"?>
<svg width="14px" height="15px" viewBox="0 0 14 15" version="1.1" xmlns="http://www.w3.org/2000/svg" xmlns:xlink="http://www.w3.org/1999/xlink">
    <!-- Generator: Sketch 52.4 (67378) - http://www.bohemiancoding.com/sketch -->
    <title>Shape</title>
    <desc>Created with Sketch.</desc>
    <g id="Page-1" stroke="none" stroke-width="1" fill="none" fill-rule="evenodd">
        <g id="Desktop-HD-Copy" transform="translate(-883.000000, -288.000000)" fill="#000000" fill-rule="nonzero">
            <g id="noun_Trash_1515267" transform="translate(883.000000, 288.000000)">
                <path d="M13.3636364,2.5 L10.1818182,2.5 L10.1818182,1.875 C10.1818182,0.839466094 9.32708907,0 8.27272727,0 L5.72727273,0 C4.67291093,0 3.81818182,0.839466094 3.81818182,1.875 L3.81818182,2.5 L0.636363636,2.5 C0.284909705,2.5 0,2.77982203 0,3.125 C0,3.47017797 0.284909705,3.75 0.636363636,3.75 L1.90909091,3.75 C1.90909091,3.75 1.90909091,3.775 1.90909091,3.7875 L2.47545455,13.234375 C2.53450747,14.2269652 3.37218584,15.001693 4.38454545,15 L9.61863636,15 C10.630996,15.001693 11.4686743,14.2269652 11.5277273,13.234375 L12.0909091,3.7875 C12.0909091,3.7875 12.0909091,3.75 12.0909091,3.75 L13.3636364,3.75 C13.7150903,3.75 14,3.47017797 14,3.125 C14,2.77982203 13.7150903,2.5 13.3636364,2.5 Z M5.09090909,1.875 C5.09090909,1.52982203 5.3758188,1.25 5.72727273,1.25 L8.27272727,1.25 C8.6241812,1.25 8.90909091,1.52982203 8.90909091,1.875 L8.90909091,2.5 L5.09090909,2.5 L5.09090909,1.875 Z M10.255,13.1625 C10.2347765,13.4929524 9.95570371,13.7505964 9.61863636,13.75 L4.38136364,13.75 C4.04429629,13.7505964 3.76522353,13.4929524 3.745,13.1625 L3.18181818,3.75 L10.8181818,3.75 L10.255,13.1625 Z" id="Shape"></path>
            </g>
        </g>
    </g>
</svg>