<svg width="22" height="20" viewBox="0 0 22 20" fill="none" xmlns="http://www.w3.org/2000/svg">
<path d="M0 1H2.17391L4.34783 3.93023M4.34783 3.93023H20L17.3913 10.6279H5.21739M4.34783 3.93023L5.21739 10.6279M5.21739 10.6279V13.1395L7.3913 14.3953H7.82609M17.8261 14.3953H15.2174M15.2174 14.3953V16.4884M15.2174 14.3953H7.82609M15.2174 16.4884H13.913L13.0435 17.3256V18.1628L13.913 19H16.5217L17.3913 18.1628V17.3256L16.5217 16.4884H15.2174ZM7.82609 14.3953V16.4884M7.82609 16.4884H8.69565L9.56522 17.3256V18.1628L8.69565 19H6.95652L6.08696 18.1628V17.3256L6.95652 16.4884H7.82609Z" stroke="white" stroke-width="1.5"/>
</svg>
