<svg width="18" height="20" viewBox="0 0 18 20" fill="none" xmlns="http://www.w3.org/2000/svg">
    <path d="M4 0C3.46957 0 2.96086 0.210714 2.58579 0.585786C2.21071 0.960859 2 1.46957 2 2C2 2.53043 2.21071 3.03914 2.58579 3.41421C2.96086 3.78929 3.46957 4 4 4C4.53043 4 5.03914 3.78929 5.41421 3.41421C5.78929 3.03914 6 2.53043 6 2C6 1.46957 5.78929 0.960859 5.41421 0.585786C5.03914 0.210714 4.53043 0 4 0ZM2 5C0.895 5 0 5.895 0 7V13C0 13.552 0.448 14 1 14V19C1 19.552 1.448 20 2 20C2.552 20 3 19.552 3 19V14H5V19C5 19.552 5.448 20 6 20C6.552 20 7 19.552 7 19V13V7H10C10.552 7 11 6.552 11 6C11 5.448 10.552 5 10 5H2ZM14 5C13.448 5 13 5.448 13 6C13 6.552 13.448 7 14 7H17C17.552 7 18 6.552 18 6C18 5.448 17.552 5 17 5H14ZM10 9C9.448 9 9 9.448 9 10C9 10.552 9.448 11 10 11C10.552 11 11 10.552 11 10C11 9.448 10.552 9 10 9ZM14 9C13.448 9 13 9.448 13 10C13 10.552 13.448 11 14 11H17C17.552 11 18 10.552 18 10C18 9.448 17.552 9 17 9H14ZM10 13C9.448 13 9 13.448 9 14C9 14.552 9.448 15 10 15C10.552 15 11 14.552 11 14C11 13.448 10.552 13 10 13ZM14 13C13.448 13 13 13.448 13 14C13 14.552 13.448 15 14 15H17C17.552 15 18 14.552 18 14C18 13.448 17.552 13 17 13H14ZM10 17C9.448 17 9 17.448 9 18C9 18.552 9.448 19 10 19C10.552 19 11 18.552 11 18C11 17.448 10.552 17 10 17ZM14 17C13.448 17 13 17.448 13 18C13 18.552 13.448 19 14 19H17C17.552 19 18 18.552 18 18C18 17.448 17.552 17 17 17H14Z" fill="black"/>
</svg>
