<svg width="22" height="18" viewBox="0 0 22 18" fill="none" xmlns="http://www.w3.org/2000/svg">
    <path d="M0.572266 0.00530964L7.57227 1.0307C7.81827 1.0677 8 1.27975 8 1.52875V7.99945H6V6.74945C6 6.44645 5.81711 6.17209 5.53711 6.05609C5.25611 5.94109 4.93375 6.0042 4.71875 6.2182L2.21875 8.4682C2.07275 8.6152 2 8.80645 2 8.99945C2 9.19045 2.07375 9.38079 2.21875 9.52679L4.71875 11.7787C4.86375 11.9227 5.055 11.9995 5.25 11.9995C5.347 11.9995 5.44411 11.9808 5.53711 11.9428C5.81711 11.8268 6 11.5525 6 11.2495V9.99945H8V16.4702C8 16.7202 7.81827 16.9322 7.57227 16.9682L0.572266 17.9936C0.271265 18.0386 0 17.8025 0 17.4955V0.503357C0 0.196357 0.271265 -0.0386904 0.572266 0.00530964ZM12.75 0.99945C13.2141 0.99945 13.6592 1.18382 13.9874 1.51201C14.3156 1.8402 14.5 2.28532 14.5 2.74945C14.5 3.21358 14.3156 3.6587 13.9874 3.98689C13.6592 4.31508 13.2141 4.49945 12.75 4.49945C12.2859 4.49945 11.8408 4.31508 11.5126 3.98689C11.1844 3.6587 11 3.21358 11 2.74945C11 2.28532 11.1844 1.8402 11.5126 1.51201C11.8408 1.18382 12.2859 0.99945 12.75 0.99945ZM18.0352 3.99945C18.4335 4.00095 18.8318 4.08317 19.2051 4.24359L19.2188 4.2475L20.4199 4.80218C20.5392 4.85731 20.6465 4.93539 20.7356 5.03198C20.8247 5.12857 20.894 5.24177 20.9393 5.36511C20.9847 5.48845 21.0053 5.61952 21 5.75083C20.9947 5.88215 20.9636 6.01113 20.9084 6.13042C20.8533 6.24971 20.7752 6.35696 20.6786 6.44605C20.582 6.53515 20.4687 6.60434 20.3454 6.64967C20.222 6.695 20.091 6.71559 19.9596 6.71026C19.8283 6.70492 19.6994 6.67378 19.5801 6.61859L18.416 6.07953H18.4121C18.2885 6.02698 18.1577 5.99994 18.0273 5.99945C17.8942 5.99895 17.7619 6.025 17.6367 6.07758L17.168 6.28851L18.7988 9.29437C18.9328 9.56937 19.002 9.87514 19 10.1791C18.997 10.7091 18.7891 11.2065 18.4141 11.5815L16.0723 13.4897L16.9277 15.6284C17.1327 16.1414 16.8841 16.7241 16.3711 16.9291C16.2501 16.9781 16.124 16.9995 16 16.9995C15.603 16.9995 15.2273 16.7625 15.0703 16.3705L14.0703 13.8705C14.0173 13.7385 13.998 13.6022 14.002 13.4682C14.002 13.4662 14 13.4643 14 13.4623C14.021 12.9293 14.2474 12.4358 14.6914 12.0248L15.8906 10.8432L14.4023 8.09906L14.0547 8.63422C13.5019 9.48518 12.5528 9.99945 11.5391 9.99945H11C10.8675 10.0013 10.7359 9.97684 10.613 9.92743C10.49 9.87802 10.3781 9.80466 10.2837 9.71161C10.1893 9.61857 10.1144 9.50769 10.0632 9.38544C10.0121 9.26318 9.98576 9.13198 9.98576 8.99945C9.98576 8.86693 10.0121 8.73572 10.0632 8.61346C10.1144 8.49121 10.1893 8.38033 10.2837 8.28729C10.3781 8.19425 10.49 8.12088 10.613 8.07147C10.7359 8.02206 10.8675 7.99758 11 7.99945H11.5391C11.8793 7.99945 12.1937 7.82941 12.3789 7.54437L13.0918 6.44867V6.44672C13.4058 5.96527 13.8506 5.58145 14.3789 5.34515L16.8516 4.23773L16.8633 4.23383C17.2381 4.0764 17.6363 3.99795 18.0352 3.99945ZM19.2227 12.1635L19.6484 12.6694C19.8374 12.8794 20.1066 12.9995 20.3906 12.9995H21C21.552 12.9995 22 13.4475 22 13.9995C22 14.5515 21.552 14.9995 21 14.9995H20.3906C19.5406 14.9995 18.7286 14.6379 18.1406 13.9819L17.6953 13.4545L19.1211 12.2885C19.1591 12.2505 19.1867 12.2035 19.2227 12.1635Z" fill="black"/>
</svg>
