<svg width="133" height="121" viewBox="0 0 133 121" fill="none" xmlns="http://www.w3.org/2000/svg">
<path d="M116.89 75.8573L127.745 115.62C127.756 115.661 127.704 115.697 127.653 115.697H5.37927C5.32859 115.697 5.27713 115.661 5.28779 115.62L15.9928 75.8573H116.89Z" fill="#DCD3BA"/>
<path opacity="0.4856" d="M113.49 115.315C113.49 115.123 112.917 114.588 112.616 114.5C112.216 114.381 111.026 113.669 111.026 113.547C111.026 113.494 110.956 113.448 110.872 113.445C110.414 113.429 109.106 111.845 108.816 110.953C108.703 110.61 108.54 110.425 108.187 110.245C107.924 110.111 107.623 110.002 107.517 110.002C107.412 110.002 107.035 109.848 106.681 109.661C106.326 109.473 105.704 109.218 105.297 109.094C104.139 108.741 103.569 108.421 102.762 107.672C102.185 107.137 101.959 106.822 101.78 106.304C101.652 105.933 101.546 105.542 101.544 105.433C101.542 105.325 101.38 105.016 101.186 104.747C100.991 104.479 100.793 104.138 100.746 103.99C100.699 103.842 100.609 103.721 100.546 103.721C100.483 103.721 100.431 103.613 100.431 103.48C100.431 103.151 99.2658 102.041 98.5831 101.719C98.2782 101.575 97.9844 101.385 97.9302 101.296C97.876 101.208 97.6265 101.135 97.3758 101.135C96.5767 101.135 93.7785 100.289 93.7785 100.048C93.7785 99.9929 93.6131 99.763 93.4109 99.5366C93.2087 99.3102 93.0075 99.0125 92.9638 98.875C92.9202 98.7375 92.6699 98.2745 92.4075 97.8461C91.945 97.0907 91.9305 97.0327 91.9287 95.9301C91.927 94.8805 91.8027 94.2458 91.4969 93.7257C91.4305 93.6127 90.9327 93.3053 90.3906 93.0426C89.8485 92.7798 89.2483 92.4614 89.0568 92.3348C88.7656 92.1425 88.3517 92.0902 86.5312 92.0155C84.2273 91.921 83.1431 91.6961 82.4222 91.1634C82.2366 91.0263 82.0383 90.9141 81.9814 90.9141C81.9245 90.9141 81.8078 90.7201 81.722 90.483C81.6363 90.246 81.4865 90.052 81.3893 90.052C81.292 90.052 81.2124 89.9978 81.2124 89.9315C81.2124 89.7729 79.8667 88.4511 79.7053 88.4511C79.5985 88.4511 78.2442 87.8035 77.455 87.3751C77.3195 87.3016 76.876 87.1773 76.4694 87.099C75.6463 86.9404 74.6898 86.5183 74.5951 86.272C74.5612 86.1836 74.4701 86.1113 74.3927 86.1113C74.1509 86.1113 73.6172 85.3327 73.5262 84.8473C73.4784 84.5924 73.4351 83.4891 73.4299 82.3954C73.4207 80.4358 73.4156 80.3991 73.0751 79.8624C72.8851 79.5629 72.49 79.0748 72.1972 78.7777C71.9043 78.4806 71.4011 77.9655 71.0789 77.633C70.7568 77.3005 70.2451 76.7999 69.9418 76.5205L69.4604 75.8578H116.891L122.254 95.7174C125.165 106.499 127.4 115.373 127.404 115.391C127.408 115.408 124.279 115.422 120.45 115.422C116.622 115.422 113.49 115.374 113.49 115.316L113.49 115.315Z" fill="#89D375"/>
<path d="M89.8122 75.8564H97.5736L99.2868 115.696H88.0759L89.8122 75.8564Z" fill="#F7FD9F"/>
<path d="M122.927 97.4142L124.652 104.31H22.8923L24.6171 98.2762L122.927 97.4142Z" fill="white"/>
<path d="M26.3419 75.8634H33.2408L27.0202 104.324H18.3965L26.3419 75.8634Z" fill="white"/>
<path d="M66.1195 0.894958C48.9611 0.894958 35.1069 14.7582 35.1069 31.8574C35.1069 37.2341 36.4813 42.2929 38.8907 46.7006L66.1209 92.2694L93.3511 46.7006C95.7604 42.2929 97.1349 37.2341 97.1349 31.8574C97.1349 14.7575 83.2804 0.894958 66.1223 0.894958H66.1195ZM65.7746 18.889C65.8897 18.8861 66.0037 18.889 66.1195 18.889C73.5316 18.889 79.5401 24.8953 79.5401 32.3045C79.5401 39.7137 73.5314 45.7198 66.1195 45.7198C58.7076 45.7198 52.699 39.7135 52.699 32.3045C52.699 25.0112 58.5227 19.0728 65.7746 18.889Z" fill="#E52626"/>
</svg>
