<svg width="20" height="21" viewBox="0 0 20 21" fill="none" xmlns="http://www.w3.org/2000/svg">
    <path d="M10.0008 0C3.88576 0 -0.967182 5.51889 0.164818 11.8379C0.875818 15.8079 4.03304 19.0158 7.98904 19.8008C9.45404 20.0918 10.876 20.0549 12.2 19.7559C12.664 19.6499 13.0008 19.2465 13.0008 18.7695V17.3203C13.0008 16.8523 12.5493 16.5299 12.1043 16.6719C11.3793 16.9039 10.6036 17.0201 9.79763 16.9961C6.08563 16.8871 3.00376 13.7208 3.00076 10.0078C2.99676 6.14481 6.13876 3 10.0008 3C10.5008 3 10.7134 2.65592 10.8054 2.41992C11.0144 1.88092 11.3138 1.20767 11.7058 0.638672C11.8408 0.442672 11.725 0.167906 11.491 0.128906C11.004 0.0499062 10.5088 0 10.0008 0ZM16.0008 0C15.2503 0 14.6212 0.372388 14.1453 0.822266C13.6694 1.27214 13.301 1.82432 12.9929 2.41602C12.3769 3.5994 12.0008 4.90133 12.0008 6C12.0008 7.85034 13.285 9.4056 15.0008 9.85547V19C14.9989 19.1325 15.0234 19.2641 15.0728 19.387C15.1222 19.51 15.1956 19.6219 15.2886 19.7163C15.3816 19.8107 15.4925 19.8856 15.6148 19.9368C15.737 19.9879 15.8682 20.0142 16.0008 20.0142C16.1333 20.0142 16.2645 19.9879 16.3867 19.9368C16.509 19.8856 16.6199 19.8107 16.7129 19.7163C16.806 19.6219 16.8793 19.51 16.9287 19.387C16.9781 19.2641 17.0026 19.1325 17.0008 19V9.85547C18.7166 9.4056 20.0008 7.85034 20.0008 6C20.0008 4.90133 19.6246 3.5994 19.0086 2.41602C18.7006 1.82432 18.3321 1.27214 17.8562 0.822266C17.3803 0.372388 16.7513 0 16.0008 0ZM9.44802 5.05469C9.36177 5.04641 9.28155 5.05055 9.21755 5.06055C6.51055 5.48855 4.51732 8.09739 5.10232 11.0254C5.48132 12.9214 7.00438 14.455 8.89138 14.877C10.1474 15.158 11.3282 14.9431 12.3172 14.4121C12.7412 14.1851 13.0008 13.7378 13.0008 13.2578V11.9434C13.0008 11.5154 12.8204 11.0918 12.4734 10.8398C10.9544 9.73584 10.0008 7.956 10.0008 6C10.0008 5.91 10.0086 5.8167 10.0086 5.7207C10.0086 5.2242 9.70677 5.07953 9.44802 5.05469Z" fill="black"/>
</svg>
