<svg width="20" height="19" viewBox="0 0 20 19" fill="none" xmlns="http://www.w3.org/2000/svg">
    <path d="M10 0C9.448 0 9 0.448 9 1H1C0.448 1 0 1.448 0 2C0 2.552 0.448 3 1 3V13C1 14.105 1.895 15 3 15H7.59961L6.50977 17.7266C6.26577 18.3366 6.71509 19 7.37109 19C7.75109 19 8.09142 18.769 8.23242 18.416L9.59961 15H10.4004L11.7676 18.416C11.9086 18.769 12.2489 19 12.6289 19C13.2849 19 13.7342 18.3366 13.4902 17.7266L12.4004 15H17C18.105 15 19 14.105 19 13V3C19.552 3 20 2.552 20 2C20 1.448 19.552 1 19 1H11C11 0.448 10.552 0 10 0ZM15.293 5.70703C15.549 5.70703 15.805 5.805 16 6C16.39 6.39 16.39 7.02406 16 7.41406L12.707 10.707C12.317 11.097 11.683 11.097 11.293 10.707L9 8.41406L6.70703 10.707C6.31603 11.098 5.68297 11.098 5.29297 10.707L4 9.41406C3.61 9.02406 3.61 8.39 4 8C4.39 7.61 5.02406 7.61 5.41406 8L6 8.58594L8.29297 6.29297C8.68397 5.90197 9.31703 5.90197 9.70703 6.29297L12 8.58594L14.5859 6C14.7809 5.805 15.037 5.70703 15.293 5.70703Z" fill="black"/>
</svg>
