<svg width="147" height="55" viewBox="0 0 147 55" fill="none" xmlns="http://www.w3.org/2000/svg">
<path d="M22.0216 31.224C20.6349 31.224 19.2802 31.0427 17.9576 30.68C16.6349 30.3173 15.5789 29.8587 14.7896 29.304L16.3256 26.264C17.0936 26.776 18.0109 27.192 19.0776 27.512C20.1656 27.8107 21.2322 27.96 22.2776 27.96C24.6669 27.96 25.8616 27.3307 25.8616 26.072C25.8616 25.4747 25.5522 25.0587 24.9336 24.824C24.3362 24.5893 23.3656 24.3653 22.0216 24.152C20.6136 23.9387 19.4616 23.6933 18.5656 23.416C17.6909 23.1387 16.9229 22.6587 16.2616 21.976C15.6216 21.272 15.3016 20.3013 15.3016 19.064C15.3016 17.4427 15.9736 16.152 17.3176 15.192C18.6829 14.2107 20.5176 13.72 22.8216 13.72C23.9949 13.72 25.1682 13.8587 26.3416 14.136C27.5149 14.392 28.4749 14.744 29.2216 15.192L27.6856 18.232C26.2349 17.3787 24.6029 16.952 22.7896 16.952C21.6162 16.952 20.7202 17.1333 20.1016 17.496C19.5042 17.8373 19.2056 18.296 19.2056 18.872C19.2056 19.512 19.5256 19.9707 20.1656 20.248C20.8269 20.504 21.8402 20.7493 23.2056 20.984C24.5709 21.1973 25.6909 21.4427 26.5656 21.72C27.4402 21.9973 28.1869 22.4667 28.8056 23.128C29.4456 23.7893 29.7656 24.728 29.7656 25.944C29.7656 27.544 29.0722 28.824 27.6856 29.784C26.2989 30.744 24.4109 31.224 22.0216 31.224ZM43.4823 30.072C43.013 30.456 42.437 30.744 41.7543 30.936C41.093 31.128 40.389 31.224 39.6423 31.224C37.765 31.224 36.3143 30.7333 35.2903 29.752C34.2663 28.7707 33.7543 27.3413 33.7543 25.464V17.24H30.9383V14.04H33.7543V10.136H37.7543V14.04H42.3303V17.24H37.7543V25.368C37.7543 26.2 37.957 26.84 38.3623 27.288C38.7676 27.7147 39.3543 27.928 40.1223 27.928C41.0183 27.928 41.765 27.6933 42.3623 27.224L43.4823 30.072ZM56.2448 13.72C57.9088 13.72 59.3915 14.0827 60.6928 14.808C62.0155 15.5333 63.0501 16.5573 63.7968 17.88C64.5435 19.2027 64.9168 20.728 64.9168 22.456C64.9168 24.184 64.5435 25.72 63.7968 27.064C63.0501 28.3867 62.0155 29.4107 60.6928 30.136C59.3915 30.8613 57.9088 31.224 56.2448 31.224C55.0715 31.224 53.9941 31.0213 53.0128 30.616C52.0528 30.2107 51.2421 29.6027 50.5808 28.792V31H46.7728V7.256H50.7728V15.992C51.4555 15.2453 52.2555 14.68 53.1728 14.296C54.1115 13.912 55.1355 13.72 56.2448 13.72ZM55.7968 27.8C57.2688 27.8 58.4741 27.3093 59.4128 26.328C60.3728 25.3467 60.8528 24.056 60.8528 22.456C60.8528 20.856 60.3728 19.5653 59.4128 18.584C58.4741 17.6027 57.2688 17.112 55.7968 17.112C54.8368 17.112 53.9728 17.336 53.2048 17.784C52.4368 18.2107 51.8288 18.8293 51.3808 19.64C50.9328 20.4507 50.7088 21.3893 50.7088 22.456C50.7088 23.5227 50.9328 24.4613 51.3808 25.272C51.8288 26.0827 52.4368 26.712 53.2048 27.16C53.9728 27.5867 54.8368 27.8 55.7968 27.8Z" fill="white"/>
<path d="M66.0696 47.32C64.3416 47.32 62.6669 47.0747 61.0456 46.584C59.4456 46.0933 58.1762 45.4427 57.2376 44.632L58.6776 41.4C59.5949 42.1253 60.7149 42.7227 62.0376 43.192C63.3816 43.64 64.7256 43.864 66.0696 43.864C67.7336 43.864 68.9709 43.5973 69.7816 43.064C70.6136 42.5307 71.0296 41.8267 71.0296 40.952C71.0296 40.312 70.7949 39.7893 70.3256 39.384C69.8776 38.9573 69.3016 38.6267 68.5976 38.392C67.8936 38.1573 66.9336 37.8907 65.7176 37.592C64.0109 37.1867 62.6242 36.7813 61.5576 36.376C60.5122 35.9707 59.6056 35.3413 58.8376 34.488C58.0909 33.6133 57.7176 32.44 57.7176 30.968C57.7176 29.7307 58.0482 28.6107 58.7096 27.608C59.3922 26.584 60.4056 25.7733 61.7496 25.176C63.1149 24.5787 64.7789 24.28 66.7416 24.28C68.1069 24.28 69.4509 24.4507 70.7736 24.792C72.0962 25.1333 73.2376 25.624 74.1976 26.264L72.8856 29.496C71.9042 28.92 70.8802 28.4827 69.8136 28.184C68.7469 27.8853 67.7122 27.736 66.7096 27.736C65.0669 27.736 63.8402 28.0133 63.0296 28.568C62.2402 29.1227 61.8456 29.8587 61.8456 30.776C61.8456 31.416 62.0696 31.9387 62.5176 32.344C62.9869 32.7493 63.5736 33.0693 64.2776 33.304C64.9816 33.5387 65.9416 33.8053 67.1576 34.104C68.8216 34.488 70.1869 34.8933 71.2536 35.32C72.3202 35.7253 73.2269 36.3547 73.9736 37.208C74.7416 38.0613 75.1256 39.2133 75.1256 40.664C75.1256 41.9013 74.7842 43.0213 74.1016 44.024C73.4402 45.0267 72.4269 45.8267 71.0616 46.424C69.6962 47.0213 68.0322 47.32 66.0696 47.32ZM95.4106 29.912V47H91.6026V44.824C90.9626 45.592 90.1626 46.1893 89.2026 46.616C88.2426 47.0213 87.2079 47.224 86.0986 47.224C83.8159 47.224 82.0132 46.5947 80.6906 45.336C79.3892 44.056 78.7386 42.168 78.7386 39.672V29.912H82.7386V39.128C82.7386 40.664 83.0799 41.816 83.7626 42.584C84.4666 43.3307 85.4586 43.704 86.7386 43.704C88.1679 43.704 89.2986 43.2667 90.1306 42.392C90.9839 41.496 91.4106 40.216 91.4106 38.552V29.912H95.4106ZM105.928 47.224C104.541 47.224 103.186 47.0427 101.864 46.68C100.541 46.3173 99.4851 45.8587 98.6958 45.304L100.232 42.264C101 42.776 101.917 43.192 102.984 43.512C104.072 43.8107 105.138 43.96 106.184 43.96C108.573 43.96 109.768 43.3307 109.768 42.072C109.768 41.4747 109.458 41.0587 108.84 40.824C108.242 40.5893 107.272 40.3653 105.928 40.152C104.52 39.9387 103.368 39.6933 102.472 39.416C101.597 39.1387 100.829 38.6587 100.168 37.976C99.5278 37.272 99.2078 36.3013 99.2078 35.064C99.2078 33.4427 99.8798 32.152 101.224 31.192C102.589 30.2107 104.424 29.72 106.728 29.72C107.901 29.72 109.074 29.8587 110.248 30.136C111.421 30.392 112.381 30.744 113.128 31.192L111.592 34.232C110.141 33.3787 108.509 32.952 106.696 32.952C105.522 32.952 104.626 33.1333 104.008 33.496C103.41 33.8373 103.112 34.296 103.112 34.872C103.112 35.512 103.432 35.9707 104.072 36.248C104.733 36.504 105.746 36.7493 107.112 36.984C108.477 37.1973 109.597 37.4427 110.472 37.72C111.346 37.9973 112.093 38.4667 112.712 39.128C113.352 39.7893 113.672 40.728 113.672 41.944C113.672 43.544 112.978 44.824 111.592 45.784C110.205 46.744 108.317 47.224 105.928 47.224ZM126.813 29.72C128.967 29.72 130.695 30.3493 131.997 31.608C133.298 32.8667 133.949 34.7333 133.949 37.208V47H129.949V37.72C129.949 36.2267 129.597 35.1067 128.893 34.36C128.189 33.592 127.186 33.208 125.885 33.208C124.413 33.208 123.25 33.656 122.397 34.552C121.543 35.4267 121.117 36.696 121.117 38.36V47H117.117V23.256H121.117V31.896C121.778 31.192 122.589 30.6587 123.549 30.296C124.53 29.912 125.618 29.72 126.813 29.72ZM139.023 29.912H143.023V47H139.023V29.912ZM141.039 27.096C140.313 27.096 139.705 26.872 139.215 26.424C138.724 25.9547 138.479 25.3787 138.479 24.696C138.479 24.0133 138.724 23.448 139.215 23C139.705 22.5307 140.313 22.296 141.039 22.296C141.764 22.296 142.372 22.52 142.863 22.968C143.353 23.3947 143.599 23.9387 143.599 24.6C143.599 25.304 143.353 25.9013 142.863 26.392C142.393 26.8613 141.785 27.096 141.039 27.096Z" fill="white"/>
<path d="M58.6168 43.5C49.117 36 12.1171 37.5 4.11698 31C-3.88313 24.5 13.1172 25.5 16.6172 28.5" stroke="white" stroke-width="3.5"/>
</svg>
