<?xml version="1.0" encoding="UTF-8"?>
<svg width="16px" height="15px" viewBox="0 0 16 15" version="1.1" xmlns="http://www.w3.org/2000/svg" xmlns:xlink="http://www.w3.org/1999/xlink">
    <!-- Generator: Sketch 52.4 (67378) - http://www.bohemiancoding.com/sketch -->
    <title>noun_private_1515793</title>
    <desc>Created with Sketch.</desc>
    <g id="Page-1" stroke="none" stroke-width="1" fill="none" fill-rule="evenodd">
        <g id="Desktop-HD-Copy" transform="translate(-939.000000, -288.000000)" fill="#000000">
            <g id="noun_private_1515793" transform="translate(947.000000, 295.500000) scale(-1, 1) translate(-947.000000, -295.500000) translate(939.000000, 288.000000)">
                <path d="M2.83666667,5.22272727 C3.06053464,4.93846705 3.02580884,4.52431706 2.75788786,4.28318818 C2.48996688,4.0420593 2.08389144,4.05948818 1.83666667,4.32272727 C1.27510148,4.97505187 0.798884483,5.69930917 0.42,6.47727273 L0.07,7.19659091 C-0.0228617165,7.38771567 -0.0228617165,7.61228433 0.07,7.80340909 L0.42,8.52272727 C1.96333333,11.6761364 4.86666667,13.6363636 8,13.6363636 C8.73671844,13.6353029 9.46956824,13.5274109 10.1766667,13.3159091 C10.4053166,13.2477038 10.5810195,13.0599239 10.6375896,12.8233042 C10.6941597,12.5866845 10.6230028,12.3371732 10.4509229,12.1687588 C10.2788431,12.0003443 10.0319833,11.9386129 9.80333333,12.0068182 C9.21776637,12.1832787 8.61045755,12.2728289 8,12.2727273 C5.37666667,12.2727273 2.93,10.6022727 1.61333333,7.9125 L1.41333333,7.5 L1.61333333,7.0875 C1.94105124,6.41471993 2.35221862,5.78796212 2.83666667,5.22272727 Z" id="Path"></path>
                <path d="M15.58,6.47727273 C14.0366667,3.32386364 11.1333333,1.36363636 8,1.36363636 C6.60369945,1.36734613 5.23350279,1.75091962 4.03,2.475 L1.80333333,0.201136364 C1.53882648,-0.0305296336 1.14453722,-0.0149538202 0.898291186,0.236888713 C0.652045154,0.488731247 0.636815469,0.891981629 0.863333333,1.1625 L5.22,5.62159091 C4.35112744,6.97263843 4.52987225,8.76208621 5.6479162,9.90554025 C6.76596016,11.0489943 8.51564243,11.2318015 9.83666667,10.3431818 L14.1966667,14.7988636 C14.4611735,15.0305296 14.8554628,15.0149538 15.1017088,14.7631113 C15.3479548,14.5112688 15.3631845,14.1080184 15.1366667,13.8375 L13.0733333,11.7272727 C14.1212859,10.8526243 14.9756854,9.76035223 15.58,8.52272727 L15.93,7.80340909 C16.0228617,7.61228433 16.0228617,7.38771567 15.93,7.19659091 L15.58,6.47727273 Z M6.58,8.94545455 C5.98475395,8.33270848 5.83000888,7.40360136 6.19333333,6.62386364 L8.86,9.35113636 C8.0946601,9.72174321 7.18405933,9.5592443 6.58666667,8.94545455 L6.58,8.94545455 Z M14.38,7.92272727 C13.841443,9.02967004 13.0695834,10.0007043 12.12,10.7659091 L5.01666667,3.48409091 C5.93833739,2.99337509 6.96093659,2.73396001 8,2.72727273 C10.6233333,2.72727273 13.07,4.39772727 14.3866667,7.0875 L14.5866667,7.5 L14.38,7.92272727 Z" id="Shape" fill-rule="nonzero"></path>
                <path d="M8.66666667,4.09090909 C8.29847683,4.09090909 8,4.39616949 8,4.77272727 C8,5.14928506 8.29847683,5.45454545 8.66666667,5.45454545 C9.40304633,5.45454545 10,6.06506625 10,6.81818182 C10,7.1947396 10.2984768,7.5 10.6666667,7.5 C11.0348565,7.5 11.3333333,7.1947396 11.3333333,6.81818182 C11.3333333,5.31195068 10.139426,4.09090909 8.66666667,4.09090909 Z" id="Path"></path>
            </g>
        </g>
    </g>
</svg>