<svg width="20" height="20" viewBox="0 0 20 20" fill="none" xmlns="http://www.w3.org/2000/svg">
    <path d="M8.0384 0C7.5594 0 7.14993 0.338594 7.05793 0.808594L6.72394 2.52344C5.90318 2.8338 5.14427 3.2674 4.47785 3.81445L2.83332 3.24805C2.38032 3.09205 1.88191 3.27936 1.64191 3.69336L0.134099 6.30664C-0.104901 6.72164 -0.0179166 7.2485 0.343083 7.5625L1.66144 8.70898C1.59288 9.13034 1.54816 9.55928 1.54816 10C1.54816 10.4407 1.59288 10.8697 1.66144 11.291L0.343083 12.4375C-0.0179166 12.7515 -0.104901 13.2784 0.134099 13.6934L1.64191 16.3066C1.88091 16.7216 2.38032 16.9089 2.83332 16.7539L4.47785 16.1875C5.14405 16.7342 5.90355 17.1663 6.72394 17.4766L7.05793 19.1914C7.14993 19.6614 7.5594 20 8.0384 20H11.0579C11.5369 20 11.9464 19.6614 12.0384 19.1914L12.3724 17.4766C13.1931 17.1662 13.9521 16.7326 14.6185 16.1855L16.263 16.752C16.716 16.908 17.2144 16.7216 17.4544 16.3066L18.9622 13.6914C19.2012 13.2764 19.1142 12.7515 18.7532 12.4375L17.4349 11.291C17.5034 10.8697 17.5482 10.4407 17.5482 10C17.5482 9.55928 17.5034 9.13034 17.4349 8.70898L18.7532 7.5625C19.1142 7.2485 19.2012 6.72164 18.9622 6.30664L17.4544 3.69336C17.2154 3.27836 16.716 3.09109 16.263 3.24609L14.6185 3.8125C13.9523 3.26579 13.1928 2.83366 12.3724 2.52344L12.0384 0.808594C11.9464 0.338594 11.5369 0 11.0579 0H8.0384ZM9.54816 6C11.7572 6 13.5482 7.791 13.5482 10C13.5482 12.209 11.7572 14 9.54816 14C7.33916 14 5.54816 12.209 5.54816 10C5.54816 7.791 7.33916 6 9.54816 6Z" fill="black"/>
</svg>
